<svg width="105" height="35" viewBox="0 0 105 35" fill="none" xmlns="http://www.w3.org/2000/svg">
<path d="M96.3681 0H8.34312C8.02156 0 7.70547 0 7.385 0.0021875C7.11703 0.00328125 6.85125 0.00875 6.58109 0.013125C5.99375 0.0196875 5.4075 0.0710937 4.82781 0.167344C4.24813 0.265781 3.68812 0.450625 3.16422 0.716406C2.37716 1.11912 1.69595 1.70145 1.1757 2.41627C0.655448 3.1311 0.310763 3.95834 0.169531 4.83109C0.0720562 5.41059 0.0197633 5.99678 0.013125 6.58437C0.00546875 6.85234 0.004375 7.12141 0 7.38938V27.615C0.004375 27.8862 0.00546875 28.1498 0.013125 28.4211C0.0196875 29.0084 0.0721875 29.5947 0.169531 30.1733C0.265816 30.7532 0.45024 31.3149 0.716406 31.8391C0.982187 32.363 1.33 32.8398 1.74781 33.2522C2.16125 33.6689 2.64031 34.0178 3.16422 34.2836C3.68765 34.5496 4.24808 34.7354 4.82672 34.8348C5.40641 34.93 5.99375 34.9825 6.58109 34.9902C6.85125 34.9956 7.11703 34.9989 7.385 34.9989C7.70547 35.0011 8.02156 35.0011 8.34312 35.0011H96.3681C96.682 35.0011 97.0025 35.0011 97.3164 34.9989C97.5833 34.9989 97.8567 34.9956 98.1236 34.9902C98.71 34.9826 99.295 34.9307 99.8736 34.8348C100.454 34.7347 101.017 34.5489 101.543 34.2836C102.067 34.0177 102.544 33.6695 102.958 33.2522C103.374 32.8387 103.724 32.3619 103.992 31.8391C104.256 31.3148 104.439 30.753 104.533 30.1733C104.631 29.5936 104.686 29.0084 104.696 28.4211C104.699 28.1498 104.699 27.8862 104.699 27.615C104.706 27.2978 104.706 26.9806 104.706 26.658V8.34422C104.706 8.02375 104.706 7.70547 104.699 7.38828C104.699 7.12031 104.699 6.85234 104.696 6.58328C104.685 5.99594 104.63 5.41078 104.533 4.83109C104.438 4.25159 104.255 3.68991 103.992 3.16531C103.452 2.11286 102.596 1.25604 101.544 0.715312C101.018 0.451067 100.455 0.266748 99.8747 0.168437C99.2962 0.0717798 98.7111 0.0198552 98.1247 0.013125C97.8578 0.00875 97.5844 0.00328125 97.3175 0.0021875C97.0014 0 96.682 0 96.3681 0Z" fill="white"/>
<path d="M7.38912 34.2344C7.12225 34.2344 6.86193 34.2311 6.59725 34.2246C6.05037 34.218 5.5035 34.1699 4.96209 34.0824C4.4579 33.9956 3.96946 33.8341 3.51287 33.6033C3.06015 33.3741 2.64727 33.0734 2.29006 32.713C1.92794 32.3571 1.62646 31.9445 1.39756 31.4913C1.16576 31.035 1.00531 30.5459 0.921777 30.041C0.831831 29.4986 0.783202 28.9501 0.776309 28.4003C0.77084 28.2166 0.763184 27.6019 0.763184 27.6019V7.38941C0.763184 7.38941 0.77084 6.78347 0.776309 6.60628C0.782871 6.05722 0.830996 5.50925 0.921777 4.96784C1.0049 4.46144 1.16568 3.97144 1.39646 3.51316C1.74471 2.83149 2.24876 2.24152 2.86771 1.79114C3.48666 1.34075 4.20307 1.04263 4.95881 0.920968C5.50124 0.831384 6.04969 0.78312 6.59943 0.776593L7.38912 0.765656H97.3118L98.1102 0.776593C98.656 0.783156 99.1996 0.831281 99.7366 0.918781C100.245 1.00534 100.738 1.16717 101.199 1.39894C102.107 1.86666 102.846 2.60668 103.312 3.51534C103.54 3.97034 103.698 4.45597 103.78 4.95909C103.871 5.50487 103.922 6.05612 103.933 6.61066C103.936 6.85784 103.936 7.12472 103.936 7.38831C103.942 7.71644 103.942 8.02925 103.942 8.34425V26.6569C103.942 26.9741 103.942 27.2847 103.936 27.5975C103.936 27.8819 103.936 28.1422 103.931 28.4113C103.921 28.9549 103.871 29.4963 103.782 30.0333C103.7 30.5408 103.542 31.0341 103.31 31.4946C103.079 31.943 102.779 32.3521 102.421 32.7064C102.063 33.0685 101.649 33.3707 101.196 33.6011C100.736 33.8339 100.244 33.9961 99.7366 34.0824C99.1963 34.1699 98.6494 34.218 98.1015 34.2246C97.8455 34.2311 97.5765 34.2344 97.3162 34.2344L96.3679 34.2366L7.38912 34.2344Z" fill="#4D4D4D"/>
<path d="M37.0139 23.7476H32.873L31.8777 26.6843H30.1233L34.0466 15.8179H35.8698L39.792 26.6843H38.0081L37.0139 23.7476ZM33.3017 22.3913H36.5841L34.9653 17.6259H34.9216L33.3017 22.3913ZM48.2642 22.7238C48.2642 25.1848 46.9473 26.7674 44.9589 26.7674C44.4549 26.794 43.9536 26.6779 43.5126 26.4326C43.0715 26.1874 42.7085 25.8227 42.4652 25.3805H42.428V29.3049H40.8027V18.7612H42.3766V20.0802H42.4061C42.6608 19.6408 43.0298 19.2785 43.4739 19.032C43.918 18.7855 44.4206 18.6639 44.9283 18.6802C46.9397 18.6802 48.2642 20.2684 48.2642 22.7238ZM46.593 22.7238C46.593 21.1193 45.7639 20.066 44.4995 20.066C43.257 20.066 42.4214 21.1423 42.4214 22.7238C42.4214 24.3207 43.257 25.3893 44.4995 25.3893C45.7639 25.3893 46.593 24.3415 46.593 22.7238ZM56.9836 22.7238C56.9836 25.1848 55.6667 26.7674 53.6783 26.7674C53.1743 26.794 52.673 26.6779 52.2319 26.4326C51.7909 26.1874 51.4278 25.8227 51.1845 25.3805H51.1473V29.3049H49.522V18.7612H51.0959V20.0802H51.1255C51.3802 19.6408 51.7492 19.2785 52.1933 19.032C52.6374 18.7855 53.14 18.6639 53.6477 18.6802C55.6591 18.6802 56.9836 20.2684 56.9836 22.7238ZM55.3123 22.7238C55.3123 21.1193 54.4833 20.066 53.2189 20.066C51.9764 20.066 51.1408 21.1423 51.1408 22.7238C51.1408 24.3207 51.9764 25.3893 53.2189 25.3893C54.4833 25.3893 55.3123 24.3415 55.3123 22.7238ZM62.7466 23.6568C62.8669 24.7341 63.9136 25.4418 65.3442 25.4418C66.7147 25.4418 67.7001 24.7341 67.7001 23.7629C67.7001 22.9196 67.1062 22.4143 65.6975 22.0676L64.2898 21.7285C62.2937 21.2473 61.3673 20.3143 61.3673 18.7995C61.3673 16.9248 63.0014 15.6374 65.3212 15.6374C67.6181 15.6374 69.192 16.9248 69.2445 18.7995H67.6039C67.5055 17.7155 66.6086 17.0604 65.2983 17.0604C63.9891 17.0604 63.0922 17.7232 63.0922 18.6868C63.0922 19.4546 63.6642 19.9074 65.0653 20.253L66.2619 20.5473C68.492 21.0745 69.4173 21.9691 69.4173 23.5595C69.4173 25.5916 67.7986 26.8648 65.2228 26.8648C62.8133 26.8648 61.1869 25.6223 61.0819 23.6568H62.7466ZM72.9283 16.8865V18.7623H74.4344V20.0496H72.9283V24.417C72.9283 25.0951 73.2301 25.4123 73.8919 25.4123C74.0712 25.409 74.2495 25.3959 74.4278 25.374V26.6537C74.1292 26.7095 73.8262 26.7346 73.5233 26.7302C71.9198 26.7302 71.2942 26.1265 71.2942 24.5909V20.0485H70.1425V18.7612H71.2942V16.8876L72.9283 16.8865ZM75.3061 22.7238C75.3061 20.2301 76.7739 18.6649 79.0631 18.6649C81.36 18.6649 82.8212 20.2312 82.8212 22.7227C82.8212 25.223 81.3676 26.7827 79.0631 26.7827C76.7597 26.7827 75.3061 25.223 75.3061 22.7238ZM81.1642 22.7238C81.1642 21.0143 80.3811 20.0048 79.0642 20.0048C77.7462 20.0048 76.962 21.022 76.962 22.7238C76.962 24.441 77.7462 25.4418 79.0631 25.4418C80.3811 25.4418 81.1642 24.4399 81.1642 22.7238ZM84.1622 18.7623H85.7131V20.1109H85.7503C85.8553 19.6895 86.1021 19.3172 86.4493 19.0565C86.7965 18.7957 87.2228 18.6625 87.6567 18.6791C87.8426 18.6791 88.0308 18.6988 88.2134 18.7404V20.2607C87.9769 20.1883 87.7301 20.1551 87.4828 20.1623C87.2464 20.1525 87.0108 20.1941 86.792 20.2841C86.5732 20.3741 86.3765 20.5104 86.2154 20.6836C86.0543 20.8569 85.9327 21.063 85.8588 21.2877C85.7849 21.5124 85.7606 21.7505 85.7875 21.9855V26.6843H84.1622V18.7623ZM95.7111 24.3579C95.4923 25.7951 94.0923 26.7827 92.2986 26.7827C89.9951 26.7827 88.5645 25.2384 88.5645 22.761C88.5645 20.276 90.0028 18.6649 92.2308 18.6649C94.4226 18.6649 95.8008 20.1699 95.8008 22.5718V23.1296H90.2062V23.228C90.1804 23.5195 90.2169 23.8132 90.3133 24.0894C90.4097 24.3657 90.5638 24.6183 90.7653 24.8305C90.9668 25.0427 91.2112 25.2095 91.4821 25.32C91.7531 25.4305 92.0444 25.4821 92.3369 25.4713C92.7211 25.5074 93.1067 25.4186 93.4364 25.218C93.766 25.0173 94.0222 24.7157 94.1667 24.3579H95.7111ZM90.2139 21.9932H94.1744C94.1889 21.731 94.1491 21.4687 94.0574 21.2227C93.9658 20.9766 93.8243 20.7522 93.6418 20.5634C93.4593 20.3747 93.2397 20.2256 92.9969 20.1257C92.7541 20.0258 92.4933 19.9772 92.2308 19.9829C91.9661 19.9814 91.7037 20.0324 91.4588 20.1328C91.2138 20.2333 90.9912 20.3812 90.8037 20.5681C90.6162 20.755 90.4676 20.9771 90.3664 21.2217C90.2651 21.4663 90.2133 21.7285 90.2139 21.9932ZM33.0983 7.63992C33.4392 7.61553 33.7813 7.66708 34.0998 7.79087C34.4184 7.91466 34.7055 8.1076 34.9405 8.35577C35.1755 8.60394 35.3525 8.90117 35.4587 9.22601C35.565 9.55086 35.5978 9.89523 35.5548 10.2343C35.5548 11.9023 34.6536 12.8604 33.0983 12.8604H31.2127V7.63992H33.0983ZM32.0231 12.1221H33.0075C33.2511 12.1368 33.495 12.0969 33.7213 12.0054C33.9475 11.9139 34.1506 11.773 34.3155 11.5931C34.4804 11.4132 34.6031 11.1987 34.6747 10.9653C34.7462 10.732 34.7648 10.4856 34.7291 10.2441C34.762 10.0037 34.7414 9.75893 34.6686 9.52739C34.5959 9.29585 34.4729 9.08326 34.3084 8.90484C34.1438 8.72641 33.9419 8.58658 33.717 8.49534C33.4921 8.40411 33.2498 8.36373 33.0075 8.37711H32.0231V12.1221ZM36.4714 10.8884C36.4454 10.6288 36.4741 10.3666 36.5556 10.1188C36.6371 9.87101 36.7697 9.64304 36.9447 9.4496C37.1198 9.25616 37.3334 9.10154 37.5718 8.99573C37.8103 8.88991 38.0683 8.83524 38.3291 8.83524C38.59 8.83524 38.848 8.88991 39.0864 8.99573C39.3249 9.10154 39.5385 9.25616 39.7136 9.4496C39.8886 9.64304 40.0211 9.87101 40.1027 10.1188C40.1842 10.3666 40.2129 10.6288 40.1869 10.8884C40.2129 11.1479 40.1842 11.4101 40.1027 11.6579C40.0211 11.9057 39.8886 12.1337 39.7136 12.3271C39.5385 12.5206 39.3249 12.6752 39.0864 12.781C38.848 12.8868 38.59 12.9415 38.3291 12.9415C38.0683 12.9415 37.8103 12.8868 37.5718 12.781C37.3334 12.6752 37.1198 12.5206 36.9447 12.3271C36.7697 12.1337 36.6371 11.9057 36.5556 11.6579C36.4741 11.4101 36.4454 11.1479 36.4714 10.8884ZM39.3873 10.8884C39.3873 10.0352 39.0045 9.53539 38.3308 9.53539C37.6548 9.53539 37.2742 10.0352 37.2742 10.8884C37.2742 11.7502 37.6548 12.2446 38.3308 12.2446C39.0034 12.2446 39.3873 11.7459 39.3873 10.8884ZM45.1273 12.8604H44.3202L43.5064 9.95867H43.4441L42.6336 12.8604H41.8352L40.748 8.9207H41.5377L42.2431 11.9274H42.3011L43.1105 8.91961H43.8575L44.6669 11.9274H44.7292L45.4314 8.91961H46.208L45.1273 12.8604ZM47.1223 8.9207H47.8705V9.54633H47.9284C48.0272 9.32164 48.1935 9.13329 48.4042 9.00745C48.6149 8.88161 48.8596 8.82453 49.1042 8.84414C49.2959 8.82977 49.4884 8.85871 49.6675 8.92882C49.8465 8.99893 50.0074 9.10841 50.1384 9.24916C50.2694 9.3899 50.367 9.5583 50.4241 9.7419C50.4812 9.92549 50.4962 10.1196 50.4681 10.3098V12.8604H49.6916V10.5055C49.6916 9.87117 49.4159 9.55726 48.8406 9.55726C48.7104 9.55116 48.5805 9.57329 48.4597 9.62214C48.3389 9.67099 48.23 9.74539 48.1407 9.84026C48.0513 9.93512 47.9835 10.0482 47.942 10.1717C47.9005 10.2952 47.8861 10.4263 47.9 10.5559V12.8604H47.1223V8.9207ZM51.7073 7.38289H52.485V12.8604H51.7073V7.38289ZM53.5667 10.8884C53.5407 10.6288 53.5694 10.3666 53.6509 10.1188C53.7324 9.87101 53.865 9.64304 54.04 9.4496C54.2151 9.25616 54.4287 9.10154 54.6671 8.99573C54.9056 8.88991 55.1636 8.83524 55.4244 8.83524C55.6853 8.83524 55.9433 8.88991 56.1818 8.99573C56.4202 9.10154 56.6338 9.25616 56.8089 9.4496C56.9839 9.64304 57.1165 9.87101 57.198 10.1188C57.2795 10.3666 57.3082 10.6288 57.2822 10.8884C57.3074 11.1475 57.278 11.4091 57.1961 11.6563C57.1142 11.9035 56.9815 12.1308 56.8064 12.3236C56.6314 12.5165 56.418 12.6706 56.1799 12.776C55.9418 12.8815 55.6843 12.9359 55.4239 12.9359C55.1635 12.9359 54.906 12.8815 54.6679 12.776C54.4298 12.6706 54.2164 12.5165 54.0414 12.3236C53.8663 12.1308 53.7336 11.9035 53.6517 11.6563C53.5698 11.4091 53.5415 11.1475 53.5667 10.8884ZM56.4827 10.8884C56.4827 10.0352 56.0987 9.53539 55.425 9.53539C54.7491 9.53539 54.3695 10.0352 54.3695 10.8884C54.3695 11.7502 54.7491 12.2446 55.425 12.2446C56.0987 12.2446 56.4827 11.7459 56.4827 10.8884ZM58.1014 11.7459C58.1014 11.0371 58.6297 10.628 59.567 10.5701L60.6334 10.5088V10.1687C60.6334 9.75304 60.3589 9.51789 59.8273 9.51789C59.3931 9.51789 59.0923 9.67648 59.007 9.95539H58.2523C58.3322 9.27836 58.9687 8.84414 59.8634 8.84414C60.8511 8.84414 61.4078 9.33633 61.4078 10.1676V12.8604H60.6597V12.307H60.5984C60.3436 12.7116 59.8919 12.9479 59.415 12.926C59.2495 12.9433 59.0822 12.9257 58.9239 12.8743C58.7656 12.8229 58.6199 12.7389 58.4961 12.6277C58.3723 12.5165 58.2732 12.3805 58.2052 12.2286C58.1372 12.0767 58.1019 11.9123 58.1014 11.7459ZM60.6334 11.4101V11.0798L59.6709 11.1421C59.1295 11.1782 58.8834 11.363 58.8834 11.7109C58.8834 12.0641 59.1897 12.2709 59.6141 12.2709C59.7379 12.2832 59.8629 12.2705 59.9817 12.2336C60.1005 12.1967 60.2107 12.1363 60.3058 12.056C60.4008 11.9758 60.4788 11.8772 60.5351 11.7663C60.5914 11.6553 60.6248 11.5342 60.6334 11.4101ZM62.4305 10.8884C62.4305 9.64367 63.0703 8.85508 64.0656 8.85508C64.5687 8.83211 65.0391 9.10117 65.2742 9.54633H65.3322V7.38289H66.1087V12.8604H65.365V12.238H65.3027C65.1789 12.4547 64.9982 12.6333 64.7801 12.7546C64.562 12.8758 64.315 12.9351 64.0656 12.926C63.0627 12.926 62.4305 12.1363 62.4305 10.8884ZM63.2333 10.8884C63.2333 11.7251 63.627 12.2271 64.2855 12.2271C64.9417 12.2271 65.3464 11.7174 65.3464 10.8927C65.3464 10.0713 64.9373 9.55398 64.2855 9.55398C63.6314 9.55398 63.2333 10.0604 63.2333 10.8884ZM69.3266 10.8884C69.3014 10.6292 69.3307 10.3676 69.4126 10.1204C69.4946 9.87322 69.6273 9.64591 69.8023 9.45308C69.9773 9.26024 70.1907 9.10615 70.4288 9.0007C70.6669 8.89526 70.9244 8.84078 71.1848 8.84078C71.4452 8.84078 71.7028 8.89526 71.9409 9.0007C72.179 9.10615 72.3924 9.26024 72.5674 9.45308C72.7424 9.64591 72.8751 9.87322 72.9571 10.1204C73.039 10.3676 73.0683 10.6292 73.0431 10.8884C73.0683 11.1475 73.039 11.4091 72.9571 11.6563C72.8751 11.9035 72.7424 12.1308 72.5674 12.3236C72.3924 12.5165 72.179 12.6706 71.9409 12.776C71.7028 12.8815 71.4452 12.9359 71.1848 12.9359C70.9244 12.9359 70.6669 12.8815 70.4288 12.776C70.1907 12.6706 69.9773 12.5165 69.8023 12.3236C69.6273 12.1308 69.4946 11.9035 69.4126 11.6563C69.3307 11.4091 69.3014 11.1475 69.3266 10.8884ZM72.2425 10.8884C72.2425 10.0352 71.8597 9.53539 71.1859 9.53539C70.51 9.53539 70.1294 10.0352 70.1294 10.8884C70.1294 11.7502 70.51 12.2446 71.1859 12.2446C71.8597 12.2446 72.2425 11.7459 72.2425 10.8884ZM74.0866 8.91961H74.8347V9.54633H74.8926C74.9914 9.32164 75.1577 9.13329 75.3684 9.00745C75.5791 8.88161 75.8238 8.82453 76.0684 8.84414C76.2601 8.82977 76.4527 8.85871 76.6317 8.92882C76.8107 8.99893 76.9717 9.10841 77.1026 9.24916C77.2336 9.3899 77.3312 9.5583 77.3883 9.7419C77.4454 9.92549 77.4604 10.1196 77.4323 10.3098V12.8604H76.6547V10.5055C76.6547 9.87117 76.3791 9.55726 75.8048 9.55726C75.6747 9.55116 75.5447 9.57329 75.4239 9.62214C75.3031 9.67099 75.1942 9.74539 75.1049 9.84026C75.0155 9.93512 74.9478 10.0482 74.9062 10.1717C74.8647 10.2952 74.8503 10.4263 74.8642 10.5559V12.8604H74.0866V8.9207V8.91961ZM81.8259 7.93961V8.9382H82.6791V9.59445H81.8259V11.619C81.8259 12.0324 81.9966 12.2129 82.3837 12.2129C82.4822 12.2129 82.5806 12.2063 82.6791 12.1954V12.8429C82.5397 12.8677 82.3984 12.8809 82.2569 12.8823C81.3928 12.8823 81.0472 12.5782 81.0472 11.818V9.59336H80.4226V8.9382H81.0472V7.9407H81.8259V7.93961ZM83.7422 7.38179H84.5122V9.55398H84.5745C84.6777 9.32696 84.8484 9.1373 85.0633 9.01085C85.2782 8.8844 85.5269 8.82733 85.7755 8.84742C85.9661 8.8372 86.1567 8.86916 86.3335 8.94101C86.5104 9.01287 86.6693 9.12285 86.7988 9.26312C86.9283 9.4034 87.0253 9.57051 87.0828 9.75256C87.1404 9.9346 87.1571 10.1271 87.1317 10.3163V12.8604H86.3541V10.5088C86.3541 9.87883 86.0609 9.56054 85.5119 9.56054C85.3783 9.54968 85.2439 9.56811 85.1182 9.61455C84.9924 9.66099 84.8783 9.73431 84.7839 9.8294C84.6894 9.92449 84.6168 10.0391 84.5712 10.1651C84.5256 10.2911 84.5081 10.4256 84.5198 10.5591V12.8604H83.7422V7.38179ZM91.6664 11.7973C91.5606 12.1571 91.3318 12.4683 91.02 12.6766C90.7081 12.8849 90.333 12.977 89.9601 12.937C89.7004 12.944 89.4422 12.8944 89.2036 12.7916C88.9649 12.6888 88.7515 12.5353 88.5782 12.3417C88.4049 12.1481 88.2759 11.9191 88.2 11.6705C88.1242 11.422 88.1034 11.16 88.1391 10.9026C88.1044 10.6446 88.1256 10.3822 88.2012 10.1332C88.2768 9.88414 88.405 9.65424 88.5771 9.45905C88.7493 9.26387 88.9614 9.10795 89.1991 9.00186C89.4367 8.89577 89.6944 8.84198 89.9547 8.84414C91.0517 8.84414 91.7134 9.59336 91.7134 10.8304V11.1016H88.9309V11.1454C88.9187 11.29 88.9369 11.4357 88.9843 11.5729C89.0317 11.7101 89.1072 11.8359 89.2061 11.9422C89.305 12.0485 89.425 12.1329 89.5584 12.1901C89.6918 12.2472 89.8358 12.2759 89.9809 12.2741C90.1668 12.2966 90.3552 12.2633 90.5222 12.1783C90.6891 12.0934 90.827 11.9608 90.9183 11.7973H91.6664ZM88.932 10.5274H90.9215C90.9313 10.3951 90.9134 10.2622 90.8688 10.1373C90.8242 10.0123 90.7539 9.89811 90.6626 9.80191C90.5712 9.70572 90.4608 9.62968 90.3383 9.5787C90.2158 9.52772 90.084 9.5029 89.9514 9.50586C89.8168 9.50409 89.6832 9.52931 89.5585 9.58004C89.4339 9.63077 89.3206 9.70597 89.2255 9.8012C89.1304 9.89643 89.0553 10.0098 89.0047 10.1345C88.9541 10.2592 88.9301 10.3928 88.932 10.5274ZM21.872 17.4027C21.8818 16.6433 22.0835 15.8988 22.4583 15.2383C22.8331 14.5777 23.3689 14.0228 24.0158 13.6249C23.6048 13.0379 23.0626 12.5548 22.4322 12.214C21.8019 11.8732 21.1008 11.6841 20.3845 11.6616C18.8577 11.502 17.3767 12.576 16.5969 12.576C15.8039 12.576 14.6052 11.678 13.3134 11.7043C12.4786 11.7316 11.665 11.9746 10.952 12.4097C10.2389 12.8448 9.65075 13.4571 9.24469 14.1871C7.48375 17.2332 8.79625 21.711 10.4828 24.173C11.325 25.3795 12.3116 26.727 13.6011 26.6788C14.8633 26.6263 15.3347 25.8738 16.8583 25.8738C18.3677 25.8738 18.8095 26.6788 20.1253 26.6482C21.4805 26.6263 22.3336 25.4374 23.1473 24.2201C23.7533 23.3607 24.2195 22.4109 24.5287 21.4059C23.7418 21.0732 23.0702 20.5161 22.5977 19.8042C22.1253 19.0924 21.8729 18.2571 21.872 17.4027ZM19.387 10.0418C20.1252 9.1556 20.4889 8.01662 20.4009 6.86664C19.2731 6.98504 18.2312 7.52394 17.4828 8.37601C17.1167 8.79248 16.8363 9.27704 16.6576 9.80197C16.479 10.3269 16.4055 10.8819 16.4416 11.4352C17.006 11.441 17.5643 11.3186 18.0745 11.0772C18.5847 10.8358 19.0335 10.4818 19.387 10.0418Z" fill="white"/>
</svg>
