<svg width="12" height="12" viewBox="0 0 12 12" fill="none" xmlns="http://www.w3.org/2000/svg">
<g id="ep:arrow-left-bold">
<path id="Vector" d="M8.03029 1.22691C8.17089 1.36756 8.24988 1.55829 8.24988 1.75716C8.24988 1.95604 8.17089 2.14677 8.03029 2.28741L4.31779 5.99991L8.03029 9.71241C8.1669 9.85387 8.2425 10.0433 8.24079 10.24C8.23908 10.4366 8.16021 10.6247 8.02115 10.7638C7.88209 10.9028 7.69398 10.9817 7.49734 10.9834C7.30069 10.9851 7.11124 10.9095 6.96979 10.7729L2.72704 6.53016C2.58643 6.38952 2.50745 6.19879 2.50745 5.99991C2.50745 5.80104 2.58643 5.61031 2.72704 5.46966L6.96979 1.22691C7.11043 1.08631 7.30116 1.00732 7.50004 1.00732C7.69891 1.00732 7.88964 1.08631 8.03029 1.22691Z" fill="#565757"/>
</g>
</svg>
