<svg width="20" height="16" viewBox="0 0 20 16" fill="none" xmlns="http://www.w3.org/2000/svg">
<g id="et:download" clip-path="url(#clip0_667_11959)">
<path id="Vector" d="M16.1705 6.56289C15.9657 3.41527 13.7767 0.380981 9.7619 0.380981C9.2719 0.380981 8.78857 0.4286 8.32476 0.52241C8.26282 0.534976 8.2084 0.571636 8.17348 0.624325C8.13856 0.677014 8.12601 0.741415 8.13857 0.803362C8.15114 0.865309 8.1878 0.919727 8.24049 0.954645C8.29317 0.989562 8.35758 1.00212 8.41952 0.989553C8.86143 0.900655 9.31114 0.856306 9.7619 0.857172C13.8514 0.857172 15.7143 4.06622 15.7143 7.04765V7.76193C15.7143 7.82508 15.7394 7.88564 15.784 7.93029C15.8287 7.97494 15.8892 8.00003 15.9524 8.00003C16.0155 8.00003 16.0761 7.97494 16.1207 7.93029C16.1654 7.88564 16.1905 7.82508 16.1905 7.76193V7.04765L16.19 7.04003C17.6486 7.16574 19.5238 8.43622 19.5238 11.0953C19.5238 13.3653 17.8505 15.1429 15.7143 15.1429H4.28571C2.39238 15.1429 0.47619 13.7524 0.47619 11.0953C0.47619 9.14574 1.66857 7.04765 4.28571 7.04765H5C5.06315 7.04765 5.12371 7.02256 5.16836 6.97791C5.21301 6.93326 5.2381 6.8727 5.2381 6.80955C5.2381 6.74641 5.21301 6.68585 5.16836 6.64119C5.12371 6.59654 5.06315 6.57146 5 6.57146H4.28571V5.61908C4.28571 3.84431 5.38048 2.74193 7.14286 2.74193C8.74476 2.74193 10 4.00574 10 5.61908V11.8062L8.01905 9.96812C7.99616 9.94686 7.96931 9.93032 7.94003 9.91943C7.91075 9.90855 7.87961 9.90354 7.84839 9.90469C7.78534 9.90701 7.7258 9.93428 7.68286 9.98051C7.63992 10.0267 7.6171 10.0881 7.61942 10.1512C7.62174 10.2142 7.64901 10.2738 7.69524 10.3167L9.84571 12.3115C9.9881 12.4534 10.1138 12.5234 10.2395 12.5234C10.3638 12.5234 10.4871 12.4543 10.6243 12.3172L12.781 10.3162C12.8039 10.295 12.8225 10.2695 12.8355 10.2411C12.8486 10.2127 12.8559 10.1819 12.8571 10.1507C12.8582 10.1195 12.8532 10.0883 12.8422 10.059C12.8313 10.0297 12.8147 10.0029 12.7933 9.98003C12.7722 9.957 12.7466 9.9384 12.7182 9.92529C12.6898 9.91219 12.6591 9.90485 12.6278 9.9037C12.5966 9.90255 12.5654 9.90761 12.5361 9.91859C12.5068 9.92956 12.48 9.94624 12.4571 9.96765L10.4762 11.8062V5.61908C10.4762 3.7386 9.0119 2.26574 7.14286 2.26574C5.1181 2.26574 3.80952 3.58193 3.80952 5.61908V6.59574C1.30714 6.83765 0 8.97812 0 11.0953C0 13.2881 1.5019 15.6191 4.28571 15.6191H15.7143C18.1176 15.6191 20 13.6319 20 11.0953C20 8.09336 17.83 6.67717 16.1705 6.56289Z" fill="white"/>
</g>
<defs>
<clipPath id="clip0_667_11959">
<rect width="20" height="15.2381" fill="white" transform="translate(0 0.380981)"/>
</clipPath>
</defs>
</svg>
