<svg width="60" height="60" viewBox="0 0 60 60" fill="none" xmlns="http://www.w3.org/2000/svg">
<g id="fluent:image-sparkle-20-regular" clip-path="url(#clip0_667_11974)">
<path id="Vector" d="M15.366 0.845987L14.322 4.05899C13.997 5.03558 13.4487 5.9229 12.7206 6.65043C11.9925 7.37797 11.1048 7.92566 10.128 8.24999L6.91201 9.29399L6.84601 9.31199C6.5982 9.39922 6.38357 9.56122 6.23174 9.77562C6.07992 9.99003 5.99838 10.2463 5.99838 10.509C5.99838 10.7717 6.07992 11.0279 6.23174 11.2423C6.38357 11.4568 6.5982 11.6188 6.84601 11.706L10.062 12.75C11.0392 13.0743 11.9273 13.622 12.6558 14.3495C13.3843 15.077 13.9333 15.9643 14.259 16.941L15.303 20.151C15.3902 20.3988 15.5522 20.6134 15.7666 20.7653C15.9811 20.9171 16.2373 20.9986 16.5 20.9986C16.7627 20.9986 17.019 20.9171 17.2334 20.7653C17.4478 20.6134 17.6098 20.3988 17.697 20.151L18.741 16.941C19.0635 15.9605 19.6111 15.0692 20.3399 14.3383C21.0687 13.6074 21.9585 13.0573 22.938 12.732L26.154 11.688C26.4018 11.6008 26.6164 11.4388 26.7683 11.2243C26.9201 11.0099 27.0016 10.7537 27.0016 10.491C27.0016 10.2283 26.9201 9.97203 26.7683 9.75762C26.6164 9.54322 26.4018 9.38122 26.154 9.29399L22.938 8.24999C21.9731 7.91695 21.0981 7.36541 20.3816 6.63841C19.665 5.91141 19.1261 5.02863 18.807 4.05899L17.76 0.848987C17.6734 0.600133 17.5115 0.384408 17.2967 0.231749C17.082 0.0790908 16.825 -0.00292969 16.5615 -0.00292969C16.298 -0.00292969 16.0411 0.0790908 15.8263 0.231749C15.6115 0.384408 15.4496 0.600133 15.363 0.848987L15.366 0.845987ZM0.65101 24.639L2.94901 23.895C3.64665 23.6625 4.28048 23.2706 4.8002 22.7503C5.31992 22.2301 5.71121 21.5959 5.94301 20.898L6.69301 18.606C6.75512 18.4288 6.87076 18.2753 7.02393 18.1666C7.1771 18.058 7.36024 17.9997 7.54801 17.9997C7.73579 17.9997 7.91892 18.058 8.07209 18.1666C8.22526 18.2753 8.3409 18.4288 8.40301 18.606L9.14701 20.898C9.37417 21.5916 9.75891 22.2232 10.2711 22.7431C10.7833 23.2631 11.4089 23.6574 12.099 23.895L14.394 24.639C14.5712 24.7011 14.7247 24.8167 14.8334 24.9699C14.942 25.1231 15.0003 25.3062 15.0003 25.494C15.0003 25.6818 14.942 25.8649 14.8334 26.0181C14.7247 26.1712 14.5712 26.2869 14.394 26.349L12.099 27.096C11.3993 27.3286 10.7636 27.7215 10.2428 28.2434C9.72188 28.7654 9.33022 29.4018 9.09901 30.102L8.35501 32.394C8.2929 32.5712 8.17726 32.7247 8.02409 32.8333C7.87092 32.942 7.68779 33.0003 7.50001 33.0003C7.31224 33.0003 7.1291 32.942 6.97593 32.8333C6.82276 32.7247 6.70712 32.5712 6.64501 32.394L5.89801 30.102C5.66633 29.4036 5.27472 28.7689 4.7544 28.2486C4.23408 27.7283 3.59943 27.3367 2.90101 27.105L0.60601 26.361C0.428805 26.2989 0.275278 26.1832 0.166658 26.0301C0.0580387 25.8769 -0.000305176 25.6938 -0.000305176 25.506C-0.000305176 25.3182 0.0580387 25.1351 0.166658 24.9819C0.275278 24.8287 0.428805 24.7131 0.60601 24.651L0.65101 24.639ZM9.00001 42V35.7C9.25699 35.596 9.50233 35.4653 9.73201 35.31C10.392 34.83 10.872 34.197 11.172 33.447L11.952 31.041C11.9672 31.0016 11.9832 30.9626 12 30.924V42C12 43.119 12.306 44.166 12.84 45.06L26.847 31.296C27.6885 30.4697 28.8207 30.0067 30 30.0067C31.1794 30.0067 32.3116 30.4697 33.153 31.296L47.163 45.06C47.7129 44.1341 48.0021 43.0768 48 42V18C48 16.4087 47.3679 14.8826 46.2426 13.7573C45.1174 12.6321 43.5913 12 42 12H29.73C30.0908 11.0329 30.093 9.9685 29.736 8.99999H42C44.387 8.99999 46.6761 9.9482 48.364 11.636C50.0518 13.3239 51 15.613 51 18V42C51 44.3869 50.0518 46.6761 48.364 48.364C46.6761 50.0518 44.387 51 42 51H18C15.6131 51 13.3239 50.0518 11.636 48.364C9.94822 46.6761 9.00001 44.3869 9.00001 42ZM42 22.5C42 23.0909 41.8836 23.6761 41.6575 24.2221C41.4313 24.768 41.0999 25.2641 40.682 25.682C40.2641 26.0998 39.7681 26.4313 39.2221 26.6574C38.6761 26.8836 38.091 27 37.5 27C36.9091 27 36.3239 26.8836 35.7779 26.6574C35.232 26.4313 34.7359 26.0998 34.318 25.682C33.9002 25.2641 33.5687 24.768 33.3426 24.2221C33.1164 23.6761 33 23.0909 33 22.5C33 21.3065 33.4741 20.1619 34.318 19.318C35.1619 18.4741 36.3065 18 37.5 18C38.6935 18 39.8381 18.4741 40.682 19.318C41.5259 20.1619 42 21.3065 42 22.5ZM39 22.5C39 22.1022 38.842 21.7206 38.5607 21.4393C38.2794 21.158 37.8978 21 37.5 21C37.1022 21 36.7207 21.158 36.4393 21.4393C36.158 21.7206 36 22.1022 36 22.5C36 22.8978 36.158 23.2793 36.4393 23.5606C36.7207 23.842 37.1022 24 37.5 24C37.8978 24 38.2794 23.842 38.5607 23.5606C38.842 23.2793 39 22.8978 39 22.5ZM42 48C43.11 48 44.145 47.7 45.036 47.178L31.05 33.438C30.7696 33.1631 30.3926 33.0092 30 33.0092C29.6074 33.0092 29.2304 33.1631 28.95 33.438L14.964 47.178C15.8843 47.7184 16.9327 48.0023 18 48H42Z" fill="#575656"/>
</g>
<defs>
<clipPath id="clip0_667_11974">
<rect width="60" height="60" fill="white"/>
</clipPath>
</defs>
</svg>
