<svg width="20" height="20" viewBox="0 0 20 20" fill="none" xmlns="http://www.w3.org/2000/svg">
<g id="material-symbols:videocam-outline">
<path id="Vector" d="M3.33336 16.6666C2.87502 16.6666 2.48252 16.5033 2.15585 16.1766C1.82919 15.8499 1.66613 15.4577 1.66669 14.9999V4.99992C1.66669 4.54159 1.83002 4.14909 2.15669 3.82242C2.48336 3.49575 2.87558 3.3327 3.33336 3.33325H13.3334C13.7917 3.33325 14.1842 3.49659 14.5109 3.82325C14.8375 4.14992 15.0006 4.54214 15 4.99992V8.74992L18.3334 5.41659V14.5833L15 11.2499V14.9999C15 15.4583 14.8367 15.8508 14.51 16.1774C14.1834 16.5041 13.7911 16.6671 13.3334 16.6666H3.33336ZM3.33336 14.9999H13.3334V4.99992H3.33336V14.9999Z" fill="#565757"/>
</g>
</svg>
