<svg width="20" height="20" viewBox="0 0 20 20" fill="none" xmlns="http://www.w3.org/2000/svg">
<g id="material-symbols:security">
<path id="Vector" d="M10 18.3334C8.06945 17.8473 6.47557 16.7395 5.21834 15.0101C3.96112 13.2806 3.33279 11.3606 3.33334 9.25008V4.16675L10 1.66675L16.6667 4.16675V9.25008C16.6667 11.3612 16.0381 13.2815 14.7808 15.0109C13.5236 16.7404 11.93 17.8479 10 18.3334ZM10 16.5834C11.3472 16.1667 12.4722 15.3437 13.375 14.1142C14.2778 12.8848 14.8056 11.5134 14.9583 10.0001H10V3.43758L5.00001 5.31258V9.62508C5.00001 9.7223 5.0139 9.8473 5.04168 10.0001H10V16.5834Z" fill="#565757"/>
</g>
</svg>
