<svg width="20" height="20" viewBox="0 0 20 20" fill="none" xmlns="http://www.w3.org/2000/svg">
<g id="mingcute:parking-fill" clip-path="url(#clip0_667_12444)">
<g id="Group">
<path id="Vector" d="M10 1.66675C14.6025 1.66675 18.3334 5.39758 18.3334 10.0001C18.3334 14.6026 14.6025 18.3334 10 18.3334C5.39752 18.3334 1.66669 14.6026 1.66669 10.0001C1.66669 5.39758 5.39752 1.66675 10 1.66675ZM11.25 5.83341H9.16669C8.72466 5.83341 8.30074 6.00901 7.98818 6.32157C7.67562 6.63413 7.50002 7.05805 7.50002 7.50008V13.3334C7.50002 13.5544 7.58782 13.7664 7.7441 13.9227C7.90038 14.079 8.11234 14.1667 8.33335 14.1667C8.55437 14.1667 8.76633 14.079 8.92261 13.9227C9.07889 13.7664 9.16669 13.5544 9.16669 13.3334V11.6667H11.25C12.0236 11.6667 12.7654 11.3595 13.3124 10.8125C13.8594 10.2655 14.1667 9.52363 14.1667 8.75008C14.1667 7.97653 13.8594 7.23467 13.3124 6.68769C12.7654 6.14071 12.0236 5.83341 11.25 5.83341ZM11.25 7.50008C11.5815 7.50008 11.8995 7.63178 12.1339 7.8662C12.3683 8.10062 12.5 8.41856 12.5 8.75008C12.5 9.0816 12.3683 9.39954 12.1339 9.63397C11.8995 9.86839 11.5815 10.0001 11.25 10.0001H9.16669V7.50008H11.25Z" fill="#565757"/>
</g>
</g>
<defs>
<clipPath id="clip0_667_12444">
<rect width="20" height="20" fill="white"/>
</clipPath>
</defs>
</svg>
