<svg width="116" height="35" viewBox="0 0 116 35" fill="none" xmlns="http://www.w3.org/2000/svg">
<path d="M110.23 0H5.35099C2.39572 0 0 2.44844 0 5.46875V29.5312C0 32.5516 2.39572 35 5.35099 35H110.23C113.186 35 115.581 32.5516 115.581 29.5312V5.46875C115.581 2.44844 113.186 0 110.23 0Z" fill="#4D4D4D"/>
<path d="M111.301 0.7C112.254 0.7 113.169 1.08719 113.843 1.77638C114.518 2.46558 114.896 3.40033 114.896 4.375V30.625C114.896 31.5997 114.518 32.5344 113.843 33.2236C113.169 33.9128 112.254 34.3 111.301 34.3H4.28079C3.32711 34.3 2.41249 33.9128 1.73813 33.2236C1.06378 32.5344 0.684927 31.5997 0.684927 30.625V4.375C0.684927 3.40033 1.06378 2.46558 1.73813 1.77638C2.41249 1.08719 3.32711 0.7 4.28079 0.7H111.301ZM111.301 0H4.28079C3.14546 0 2.05662 0.460936 1.25382 1.28141C0.451011 2.10188 0 3.21468 0 4.375L0 30.625C0 31.7853 0.451011 32.8981 1.25382 33.7186C2.05662 34.5391 3.14546 35 4.28079 35H111.301C112.436 35 113.525 34.5391 114.328 33.7186C115.13 32.8981 115.581 31.7853 115.581 30.625V4.375C115.581 3.21468 115.13 2.10188 114.328 1.28141C113.525 0.460936 112.436 0 111.301 0Z" fill="white"/>
<path d="M58.339 19.0312C57.6201 19.0346 56.9183 19.2557 56.3221 19.6664C55.726 20.0771 55.2623 20.6591 54.9895 21.3389C54.7168 22.0187 54.6471 22.7659 54.7895 23.4861C54.9318 24.2063 55.2797 24.8673 55.7892 25.3856C56.2988 25.9039 56.9472 26.2564 57.6525 26.3984C58.3579 26.5405 59.0886 26.4659 59.7525 26.1839C60.4164 25.9019 60.9837 25.4253 61.3827 24.8141C61.7818 24.2029 61.9948 23.4847 61.9948 22.7499C62.0018 22.2581 61.9119 21.7699 61.7304 21.3143C61.5489 20.8588 61.2796 20.4452 60.9385 20.0982C60.5974 19.7512 60.1915 19.478 59.7449 19.2946C59.2983 19.1113 58.8202 19.0217 58.339 19.0312ZM58.339 25.0074C57.8969 25.039 57.4556 24.934 57.0727 24.7059C56.6898 24.4778 56.3828 24.1373 56.1918 23.7285C56.0007 23.3198 55.9344 22.8618 56.0014 22.414C56.0684 21.9663 56.2657 21.5495 56.5676 21.2178C56.8694 20.8862 57.262 20.655 57.6941 20.5543C58.1262 20.4537 58.578 20.4882 58.9907 20.6535C59.4034 20.8187 59.7579 21.107 60.0081 21.4809C60.2583 21.8548 60.3927 22.2969 60.3938 22.7499C60.4076 23.0369 60.365 23.3239 60.2685 23.5938C60.1721 23.8637 60.0238 24.1112 59.8323 24.3216C59.6407 24.532 59.41 24.701 59.1535 24.8188C58.897 24.9366 58.6201 25.0008 58.339 25.0074ZM50.3682 19.0312C49.6489 19.0329 48.9462 19.2525 48.349 19.6621C47.7517 20.0718 47.2867 20.6532 47.0126 21.3329C46.7385 22.0125 46.6676 22.76 46.809 23.4808C46.9504 24.2015 47.2976 24.8633 47.8068 25.3825C48.316 25.9017 48.9644 26.2551 49.67 26.3978C50.3756 26.5406 51.1068 26.4665 51.7712 26.1847C52.4355 25.903 53.0033 25.4264 53.4028 24.815C53.8022 24.2037 54.0154 23.485 54.0154 22.7499C54.0224 22.2581 53.9325 21.7699 53.751 21.3143C53.5695 20.8588 53.3002 20.4452 52.9591 20.0982C52.618 19.7512 52.2121 19.478 51.7655 19.2946C51.3189 19.1113 50.8408 19.0217 50.3596 19.0312H50.3682ZM50.3682 25.0074C49.9258 25.0408 49.4839 24.9373 49.0999 24.7104C48.7159 24.4835 48.4076 24.1437 48.2152 23.7352C48.0228 23.3268 47.9552 22.8686 48.0212 22.4203C48.0871 21.9721 48.2836 21.5545 48.585 21.2219C48.8865 20.8893 49.2789 20.6572 49.7112 20.5558C50.1435 20.4543 50.5957 20.4883 51.0089 20.6531C51.422 20.818 51.7771 21.1062 52.0278 21.4802C52.2785 21.8541 52.4132 22.2966 52.4144 22.7499C52.4282 23.0369 52.3856 23.3239 52.2891 23.5938C52.1927 23.8637 52.0444 24.1112 51.8529 24.3216C51.6614 24.532 51.4306 24.701 51.1741 24.8188C50.9176 24.9366 50.6407 25.0008 50.3596 25.0074H50.3682ZM40.8734 20.1774V21.7524H44.572C44.514 22.4942 44.2122 23.1942 43.7158 23.7387C43.3458 24.1239 42.9009 24.4256 42.4099 24.6246C41.9189 24.8235 41.3926 24.9152 40.8648 24.8937C39.7749 24.8937 38.7296 24.4512 37.9589 23.6635C37.1882 22.8759 36.7552 21.8076 36.7552 20.6937C36.7552 19.5798 37.1882 18.5115 37.9589 17.7238C38.7296 16.9362 39.7749 16.4937 40.8648 16.4937C41.9074 16.4763 42.9142 16.8822 43.6644 17.6224L44.7518 16.5112C44.2453 15.9871 43.6411 15.5722 42.9749 15.2911C42.3087 15.0101 41.5941 14.8685 40.8734 14.8749C40.1122 14.8446 39.353 14.9717 38.641 15.2485C37.9291 15.5253 37.2792 15.9461 36.7302 16.4858C36.1812 17.0254 35.7445 17.6728 35.4462 18.3891C35.1478 19.1054 34.9941 19.8758 34.9941 20.6543C34.9941 21.4328 35.1478 22.2032 35.4462 22.9195C35.7445 23.6358 36.1812 24.2831 36.7302 24.8228C37.2792 25.3624 37.9291 25.7833 38.641 26.0601C39.353 26.3369 40.1122 26.4639 40.8734 26.4337C41.6062 26.4675 42.3376 26.3405 43.0184 26.0613C43.6992 25.7821 44.3136 25.3571 44.8203 24.8149C45.7172 23.8077 46.1961 22.4837 46.1559 21.1224C46.1586 20.7908 46.1299 20.4597 46.0702 20.1337L40.8734 20.1774ZM79.6659 21.4024C79.4426 20.7311 79.0251 20.1448 78.4686 19.7214C77.9121 19.298 77.2428 19.0573 76.5495 19.0312C76.0812 19.0302 75.6176 19.1275 75.1875 19.3169C74.7575 19.5063 74.3699 19.7838 74.049 20.1324C73.728 20.4809 73.4804 20.893 73.3214 21.3433C73.1625 21.7935 73.0956 22.2722 73.1249 22.7499C73.1144 23.239 73.2006 23.7251 73.3782 24.1794C73.5557 24.6337 73.821 25.0467 74.1583 25.3938C74.4955 25.7409 74.8978 26.015 75.341 26.1997C75.7842 26.3843 76.2593 26.4758 76.7378 26.4687C77.3367 26.472 77.9271 26.3234 78.456 26.0363C78.9849 25.7493 79.4359 25.3326 79.7686 24.8237L78.5272 23.9487C78.3419 24.2643 78.0796 24.5255 77.766 24.7064C77.4523 24.8874 77.098 24.9821 76.7378 24.9812C76.367 24.9956 76.0005 24.8957 75.6859 24.6944C75.3714 24.4931 75.1234 24.1997 74.9742 23.8524L79.8457 21.7962L79.6659 21.4024ZM74.7002 22.6449C74.6828 22.3743 74.7185 22.1028 74.8051 21.8464C74.8917 21.59 75.0274 21.3539 75.2044 21.1518C75.3814 20.9497 75.5961 20.7858 75.8359 20.6695C76.0757 20.5533 76.3357 20.4871 76.6009 20.4749C76.877 20.4563 77.1525 20.521 77.3929 20.661C77.6334 20.801 77.8284 21.0102 77.9536 21.2624L74.7002 22.6449ZM70.7447 26.2499H72.3457V15.3124H70.7447V26.2499ZM68.1249 19.8624H68.065C67.8237 19.5867 67.5281 19.3662 67.1976 19.2154C66.8671 19.0646 66.5091 18.9869 66.1472 18.9874C65.2115 19.0338 64.3292 19.4463 63.6831 20.1394C63.037 20.8326 62.6766 21.7532 62.6766 22.7105C62.6766 23.6679 63.037 24.5885 63.6831 25.2817C64.3292 25.9748 65.2115 26.3873 66.1472 26.4337C66.51 26.4399 66.8697 26.3648 67.201 26.2136C67.5324 26.0624 67.8273 25.8389 68.065 25.5587H68.1163V26.0924C68.1163 27.5187 67.3715 28.2799 66.1728 28.2799C65.7736 28.2704 65.3862 28.1396 65.06 27.9043C64.7337 27.669 64.4833 27.3399 64.3407 26.9587L62.9451 27.5537C63.2078 28.2067 63.6554 28.7647 64.2305 29.156C64.8056 29.5473 65.482 29.7541 66.1728 29.7499C68.0478 29.7499 69.5975 28.6212 69.5975 25.8737V19.2499H68.1249V19.8624ZM66.2927 25.0074C65.7404 24.9577 65.2264 24.6983 64.852 24.2804C64.4776 23.8626 64.2699 23.3165 64.2699 22.7499C64.2699 22.1833 64.4776 21.6373 64.852 21.2194C65.2264 20.8015 65.7404 20.5422 66.2927 20.4924C66.5665 20.5068 66.8348 20.577 67.0816 20.6989C67.3285 20.8209 67.549 20.9921 67.7301 21.2025C67.9112 21.4128 68.0493 21.6581 68.1362 21.9239C68.2231 22.1897 68.2571 22.4705 68.2362 22.7499C68.2595 23.0305 68.227 23.313 68.1404 23.5804C68.0539 23.8478 67.9152 24.0945 67.7327 24.3055C67.5503 24.5165 67.3278 24.6875 67.0788 24.8082C66.8298 24.9288 66.5595 24.9966 66.2841 25.0074H66.2927ZM87.1659 15.3124H83.3388V26.2499H84.9398V22.1024H87.1744C87.6307 22.1359 88.0889 22.073 88.5203 21.9176C88.9518 21.7621 89.3472 21.5175 89.6821 21.199C90.017 20.8804 90.284 20.4948 90.4667 20.0661C90.6493 19.6375 90.7435 19.1749 90.7435 18.7074C90.7435 18.2399 90.6493 17.7774 90.4667 17.3487C90.284 16.92 90.017 16.5344 89.6821 16.2159C89.3472 15.8973 88.9518 15.6527 88.5203 15.4973C88.0889 15.3418 87.6307 15.2789 87.1744 15.3124H87.1659ZM87.1659 20.5624H84.9313V16.8349H87.2001C87.6872 16.8349 88.1543 17.0327 88.4987 17.3846C88.8431 17.7366 89.0366 18.214 89.0366 18.7118C89.0366 19.2096 88.8431 19.687 88.4987 20.0389C88.1543 20.3909 87.6872 20.5887 87.2001 20.5887L87.1659 20.5624ZM97.0374 18.9874C96.4545 18.9518 95.8742 19.091 95.3677 19.3879C94.8612 19.6848 94.4506 20.1265 94.1864 20.6587L95.6076 21.2624C95.8944 20.7232 96.4637 20.4071 97.063 20.4574C97.2663 20.4332 97.4722 20.4505 97.6688 20.5084C97.8654 20.5664 98.0488 20.6638 98.2082 20.7949C98.3676 20.926 98.4998 21.0883 98.5972 21.2722C98.6946 21.4562 98.7551 21.6581 98.7754 21.8662V21.9799C98.2611 21.7017 97.6877 21.5574 97.1059 21.5599C95.5733 21.5599 94.0237 22.4349 94.0237 24.0187C94.0388 24.3564 94.12 24.6875 94.2626 24.9926C94.4051 25.2976 94.606 25.5704 94.8534 25.7947C95.1009 26.0191 95.3898 26.1904 95.7031 26.2987C96.0165 26.4069 96.3479 26.4498 96.6778 26.4249C97.081 26.4545 97.4845 26.3726 97.8461 26.1879C98.2076 26.0031 98.5138 25.7223 98.7326 25.3749H98.7839V26.2499H100.325V22.0412C100.325 20.1249 98.9038 19.0137 97.0802 19.0137L97.0374 18.9874ZM96.8404 24.9812C96.3182 24.9812 95.5905 24.7099 95.5905 24.0537C95.5905 23.1787 96.498 22.8899 97.3028 22.8899C97.8114 22.8768 98.3141 23.0037 98.7582 23.2574C98.7047 23.7311 98.4855 24.1691 98.1409 24.4907C97.7964 24.8123 97.3497 24.9958 96.8833 25.0074L96.8404 24.9812ZM105.941 19.2499L104.109 23.9924H104.058L102.157 19.2499H100.445L103.296 25.8824L101.669 29.5662H103.339L107.722 19.2499H105.941ZM91.5494 26.2499H93.1504V15.3124H91.5494V26.2499ZM40.5994 8.95991C40.6139 9.28085 40.5645 9.60147 40.4541 9.9023C40.3438 10.2031 40.1747 10.4779 39.9573 10.7099C39.7145 10.9677 39.4212 11.1703 39.0967 11.3044C38.7722 11.4386 38.4236 11.5014 38.0737 11.4887C37.5429 11.4844 37.0251 11.3202 36.5852 11.0165C36.1453 10.7128 35.8029 10.2832 35.6009 9.78146C35.3988 9.27976 35.3462 8.72827 35.4495 8.19612C35.5528 7.66396 35.8075 7.17479 36.1816 6.78991C36.4275 6.53335 36.7223 6.33108 37.0478 6.19563C37.3732 6.06017 37.7224 5.99441 38.0737 6.00241C38.4357 6.00118 38.794 6.07562 39.1268 6.22116C39.4372 6.34913 39.7122 6.54929 39.9316 6.80741L39.4778 7.27116C39.3069 7.06343 39.0911 6.89917 38.8474 6.79135C38.6038 6.68353 38.3389 6.63511 38.0737 6.64991C37.8063 6.64857 37.5414 6.70244 37.2948 6.80828C37.0482 6.91412 36.8251 7.06976 36.6388 7.26586C36.4525 7.46196 36.3069 7.69449 36.2107 7.9495C36.1145 8.20452 36.0697 8.47676 36.0789 8.74991C36.0733 9.15778 36.186 9.55821 36.4028 9.90069C36.6196 10.2432 36.9308 10.5123 37.2971 10.6743C37.6635 10.8362 38.0685 10.8836 38.4612 10.8105C38.8538 10.7375 39.2165 10.5472 39.5035 10.2637C39.7668 9.97163 39.9187 9.59319 39.9316 9.19616H38.0737V8.56616H40.5651C40.5876 8.69632 40.5994 8.82866 40.5994 8.95991ZM44.5206 6.77241H42.209V8.43491H44.3151V9.06491H42.209V10.7274H44.5206V11.3749H41.524V6.12491H44.5206V6.77241ZM47.3288 11.3749H46.6696V6.77241H45.2312V6.12491H48.8014V6.77241H47.3288V11.3749ZM51.3185 11.3749V6.12491H51.9777V11.3749H51.3185ZM54.9058 11.3749H54.2466V6.77241H52.8082V6.12491H56.3356V6.77241H54.9058V11.3749ZM63.0222 10.6924C62.5217 11.2011 61.8445 11.4866 61.1386 11.4866C60.4328 11.4866 59.7556 11.2011 59.2551 10.6924C58.7686 10.1661 58.4976 9.46955 58.4976 8.74554C58.4976 8.02153 58.7686 7.32496 59.2551 6.79866C59.5018 6.54469 59.7952 6.34312 60.1185 6.20556C60.4418 6.06801 60.7885 5.99719 61.1386 5.99719C61.4888 5.99719 61.8355 6.06801 62.1588 6.20556C62.482 6.34312 62.7755 6.54469 63.0222 6.79866C63.5106 7.32395 63.7829 8.0209 63.7829 8.74554C63.7829 9.47017 63.5106 10.1671 63.0222 10.6924ZM59.7431 10.2549C60.1138 10.6321 60.6155 10.8439 61.1386 10.8439C61.6617 10.8439 62.1635 10.6321 62.5342 10.2549C62.9 9.84281 63.1026 9.30632 63.1026 8.74991C63.1026 8.19351 62.9 7.65702 62.5342 7.24491C62.1635 6.86768 61.6617 6.65589 61.1386 6.65589C60.6155 6.65589 60.1138 6.86768 59.7431 7.24491C59.3773 7.65702 59.1747 8.19351 59.1747 8.74991C59.1747 9.30632 59.3773 9.84281 59.7431 10.2549ZM64.7088 11.3749V6.12491H65.5136L68.0136 10.2112V6.12491H68.6728V11.3749H67.9879L65.3766 7.09616V11.3749H64.7088ZM8.93865 6.59741C8.6596 6.93963 8.51875 7.37773 8.54481 7.82241V27.1774C8.51875 27.6221 8.6596 28.0602 8.93865 28.4024L8.99858 28.4637L19.6064 17.6312V17.3774L8.99858 6.53616L8.93865 6.59741ZM23.1166 21.2449L19.6064 17.6312V17.3774L23.1166 13.7549L23.1937 13.7987L27.3974 16.2399C28.596 16.9312 28.596 18.0687 27.3974 18.7687L23.2108 21.2012L23.1166 21.2449Z" fill="white"/>
<path d="M23.2187 21.1924L19.6057 17.4999L8.93801 28.4024C9.44207 28.8552 10.1901 28.8771 10.7188 28.4549L23.2273 21.1924M23.2187 13.8074L10.7103 6.54489C10.454 6.34015 10.1357 6.23335 9.81058 6.24293C9.48543 6.25252 9.17376 6.37789 8.92944 6.59739L19.6057 17.4999L23.2187 13.8074Z" fill="white"/>
<path opacity="0.2" d="M23.1156 21.1137L10.7099 28.3325C10.4627 28.5213 10.1623 28.6234 9.85371 28.6234C9.54508 28.6234 9.24473 28.5213 8.99755 28.3325L8.93762 28.3937L8.99755 28.455C9.24417 28.6452 9.54473 28.7481 9.85371 28.7481C10.1627 28.7481 10.4632 28.6452 10.7099 28.455L23.2183 21.1925L23.1156 21.1137Z" fill="white"/>
<path opacity="0.12" d="M8.93865 28.28C8.6596 27.9378 8.51875 27.4997 8.54481 27.055V27.1863C8.51875 27.6309 8.6596 28.069 8.93865 28.4113L8.99858 28.35L8.93865 28.28ZM27.3974 18.6375L23.1166 21.1138L23.1937 21.1925L27.3974 18.76C27.636 18.6455 27.8407 18.4687 27.991 18.2475C28.1413 18.0262 28.2319 17.7684 28.2536 17.5C28.2054 17.7439 28.1032 17.9732 27.9548 18.1704C27.8064 18.3676 27.6157 18.5274 27.3974 18.6375Z" fill="white"/>
<path opacity="0.25" d="M10.71 6.66745L27.3966 16.3624C27.8386 16.5856 28.1553 17.0056 28.2527 17.4999C28.2311 17.2315 28.1405 16.9737 27.9902 16.7525C27.8399 16.5312 27.6351 16.3545 27.3966 16.2399L10.71 6.54495C9.51142 5.8537 8.5354 6.43119 8.5354 7.83119V7.96245C8.56109 6.5537 9.51998 5.9762 10.71 6.66745Z" fill="#4D4D4D"/>
<path d="M8.99011 6.5625L24.401 22.3125M8.99011 28.4375L23.5448 13.5625" stroke="#4D4D4D"/>
</svg>
