<svg width="136" height="19" viewBox="0 0 136 19" fill="none" xmlns="http://www.w3.org/2000/svg">
<path d="M7.46397 18.768C6.16797 18.768 4.91197 18.584 3.69597 18.216C2.49597 17.848 1.54397 17.36 0.839966 16.752L1.91997 14.328C2.60797 14.872 3.44797 15.32 4.43997 15.672C5.44797 16.008 6.45597 16.176 7.46397 16.176C8.71197 16.176 9.63997 15.976 10.248 15.576C10.872 15.176 11.184 14.648 11.184 13.992C11.184 13.512 11.008 13.12 10.656 12.816C10.32 12.496 9.88797 12.248 9.35997 12.072C8.83197 11.896 8.11197 11.696 7.19997 11.472C5.91997 11.168 4.87997 10.864 4.07997 10.56C3.29597 10.256 2.61597 9.784 2.03997 9.144C1.47997 8.488 1.19997 7.608 1.19997 6.504C1.19997 5.576 1.44797 4.736 1.94397 3.984C2.45597 3.216 3.21597 2.608 4.22397 2.16C5.24797 1.712 6.49597 1.488 7.96797 1.488C8.99197 1.488 9.99997 1.616 10.992 1.872C11.984 2.128 12.84 2.496 13.56 2.976L12.576 5.4C11.84 4.968 11.072 4.64 10.272 4.416C9.47197 4.192 8.69597 4.08 7.94397 4.08C6.71197 4.08 5.79197 4.288 5.18397 4.704C4.59197 5.12 4.29597 5.672 4.29597 6.36C4.29597 6.84 4.46397 7.232 4.79997 7.536C5.15197 7.84 5.59197 8.08 6.11997 8.256C6.64797 8.432 7.36797 8.632 8.27997 8.856C9.52797 9.144 10.552 9.448 11.352 9.768C12.152 10.072 12.832 10.544 13.392 11.184C13.968 11.824 14.256 12.688 14.256 13.776C14.256 14.704 14 15.544 13.488 16.296C12.992 17.048 12.232 17.648 11.208 18.096C10.184 18.544 8.93597 18.768 7.46397 18.768Z" fill="#333333"/>
<path d="M22.8217 18.696C21.5257 18.696 20.3577 18.416 19.3177 17.856C18.2777 17.296 17.4617 16.52 16.8697 15.528C16.2937 14.52 16.0057 13.384 16.0057 12.12C16.0057 10.856 16.2937 9.728 16.8697 8.736C17.4617 7.744 18.2777 6.968 19.3177 6.408C20.3577 5.848 21.5257 5.568 22.8217 5.568C24.1337 5.568 25.3097 5.848 26.3497 6.408C27.3897 6.968 28.1977 7.744 28.7737 8.736C29.3657 9.728 29.6617 10.856 29.6617 12.12C29.6617 13.384 29.3657 14.52 28.7737 15.528C28.1977 16.52 27.3897 17.296 26.3497 17.856C25.3097 18.416 24.1337 18.696 22.8217 18.696ZM22.8217 16.128C23.9257 16.128 24.8377 15.76 25.5577 15.024C26.2777 14.288 26.6377 13.32 26.6377 12.12C26.6377 10.92 26.2777 9.952 25.5577 9.216C24.8377 8.48 23.9257 8.112 22.8217 8.112C21.7177 8.112 20.8057 8.48 20.0857 9.216C19.3817 9.952 19.0297 10.92 19.0297 12.12C19.0297 13.32 19.3817 14.288 20.0857 15.024C20.8057 15.76 21.7177 16.128 22.8217 16.128Z" fill="#333333"/>
<path d="M32.5305 0.719999H35.5305V18.528H32.5305V0.719999Z" fill="#333333"/>
<path d="M39.468 5.712H42.468V18.528H39.468V5.712ZM40.98 3.6C40.436 3.6 39.98 3.432 39.612 3.096C39.244 2.744 39.06 2.312 39.06 1.8C39.06 1.288 39.244 0.863999 39.612 0.527999C39.98 0.176 40.436 0 40.98 0C41.524 0 41.98 0.168 42.348 0.503999C42.716 0.824 42.9 1.232 42.9 1.728C42.9 2.256 42.716 2.704 42.348 3.072C41.996 3.424 41.54 3.6 40.98 3.6Z" fill="#333333"/>
<path d="M58.9575 0.719999V18.528H56.0775V16.872C55.5815 17.48 54.9655 17.936 54.2295 18.24C53.5095 18.544 52.7095 18.696 51.8295 18.696C50.5975 18.696 49.4855 18.424 48.4935 17.88C47.5175 17.336 46.7495 16.568 46.1895 15.576C45.6295 14.568 45.3495 13.416 45.3495 12.12C45.3495 10.824 45.6295 9.68 46.1895 8.688C46.7495 7.696 47.5175 6.928 48.4935 6.384C49.4855 5.84 50.5975 5.568 51.8295 5.568C52.6775 5.568 53.4535 5.712 54.1575 6C54.8615 6.288 55.4615 6.72 55.9575 7.296V0.719999H58.9575ZM52.1895 16.128C52.9095 16.128 53.5575 15.968 54.1335 15.648C54.7095 15.312 55.1655 14.84 55.5015 14.232C55.8375 13.624 56.0055 12.92 56.0055 12.12C56.0055 11.32 55.8375 10.616 55.5015 10.008C55.1655 9.4 54.7095 8.936 54.1335 8.616C53.5575 8.28 52.9095 8.112 52.1895 8.112C51.4695 8.112 50.8215 8.28 50.2455 8.616C49.6695 8.936 49.2135 9.4 48.8775 10.008C48.5415 10.616 48.3735 11.32 48.3735 12.12C48.3735 12.92 48.5415 13.624 48.8775 14.232C49.2135 14.84 49.6695 15.312 50.2455 15.648C50.8215 15.968 51.4695 16.128 52.1895 16.128Z" fill="#333333"/>
<path d="M78.098 1.728V18.528H74.978V11.328H66.29V18.528H63.17V1.728H66.29V8.664H74.978V1.728H78.098Z" fill="#333333"/>
<path d="M88.0717 18.696C86.7757 18.696 85.6077 18.416 84.5677 17.856C83.5277 17.296 82.7117 16.52 82.1197 15.528C81.5437 14.52 81.2557 13.384 81.2557 12.12C81.2557 10.856 81.5437 9.728 82.1197 8.736C82.7117 7.744 83.5277 6.968 84.5677 6.408C85.6077 5.848 86.7757 5.568 88.0717 5.568C89.3837 5.568 90.5597 5.848 91.5997 6.408C92.6397 6.968 93.4477 7.744 94.0237 8.736C94.6157 9.728 94.9117 10.856 94.9117 12.12C94.9117 13.384 94.6157 14.52 94.0237 15.528C93.4477 16.52 92.6397 17.296 91.5997 17.856C90.5597 18.416 89.3837 18.696 88.0717 18.696ZM88.0717 16.128C89.1757 16.128 90.0877 15.76 90.8077 15.024C91.5277 14.288 91.8877 13.32 91.8877 12.12C91.8877 10.92 91.5277 9.952 90.8077 9.216C90.0877 8.48 89.1757 8.112 88.0717 8.112C86.9677 8.112 86.0557 8.48 85.3357 9.216C84.6317 9.952 84.2797 10.92 84.2797 12.12C84.2797 13.32 84.6317 14.288 85.3357 15.024C86.0557 15.76 86.9677 16.128 88.0717 16.128Z" fill="#333333"/>
<path d="M113.956 5.568C115.572 5.568 116.852 6.04 117.796 6.984C118.74 7.912 119.212 9.312 119.212 11.184V18.528H116.212V11.568C116.212 10.448 115.964 9.608 115.468 9.048C114.972 8.472 114.26 8.184 113.332 8.184C112.324 8.184 111.516 8.52 110.908 9.192C110.3 9.848 109.996 10.792 109.996 12.024V18.528H106.996V11.568C106.996 10.448 106.748 9.608 106.252 9.048C105.756 8.472 105.044 8.184 104.116 8.184C103.092 8.184 102.276 8.512 101.668 9.168C101.076 9.824 100.78 10.776 100.78 12.024V18.528H97.7805V5.712H100.636V7.344C101.116 6.768 101.716 6.328 102.436 6.024C103.156 5.72 103.956 5.568 104.836 5.568C105.796 5.568 106.644 5.752 107.38 6.12C108.132 6.472 108.724 7 109.156 7.704C109.684 7.032 110.364 6.512 111.196 6.144C112.028 5.76 112.948 5.568 113.956 5.568Z" fill="#333333"/>
<path d="M135.211 12.192C135.211 12.4 135.195 12.696 135.163 13.08H125.107C125.283 14.024 125.739 14.776 126.475 15.336C127.227 15.88 128.155 16.152 129.259 16.152C130.667 16.152 131.827 15.688 132.739 14.76L134.347 16.608C133.771 17.296 133.043 17.816 132.163 18.168C131.283 18.52 130.291 18.696 129.187 18.696C127.779 18.696 126.539 18.416 125.467 17.856C124.395 17.296 123.563 16.52 122.971 15.528C122.395 14.52 122.107 13.384 122.107 12.12C122.107 10.872 122.387 9.752 122.947 8.76C123.523 7.752 124.315 6.968 125.323 6.408C126.331 5.848 127.467 5.568 128.731 5.568C129.979 5.568 131.091 5.848 132.067 6.408C133.059 6.952 133.827 7.728 134.371 8.736C134.931 9.728 135.211 10.88 135.211 12.192ZM128.731 7.968C127.771 7.968 126.955 8.256 126.283 8.832C125.627 9.392 125.227 10.144 125.083 11.088H132.355C132.227 10.16 131.835 9.408 131.179 8.832C130.523 8.256 129.707 7.968 128.731 7.968Z" fill="#333333"/>
</svg>
