<svg width="20" height="18" viewBox="0 0 20 18" fill="none" xmlns="http://www.w3.org/2000/svg">
<path d="M13.9771 11.8898L18.773 16.4332L17.8462 17.3113L13.0111 12.7306L12.7032 12.4389L12.3652 12.6951C11.8211 13.1075 11.1904 13.4379 10.4685 13.6834C9.75595 13.9257 8.9936 14.0484 8.17834 14.0484C6.15345 14.0484 4.46247 13.389 3.07413 12.0737C1.68613 10.7587 1 9.16882 1 7.27421C1 5.37961 1.68613 3.78969 3.07413 2.47474C4.46247 1.15947 6.15345 0.5 8.17834 0.5C10.2032 0.5 11.8947 1.15947 13.2838 2.47483C14.6709 3.78972 15.3567 5.37961 15.3567 7.27421C15.3567 8.03773 15.2287 8.75145 14.9757 9.4192C14.7189 10.097 14.3727 10.6906 13.939 11.2042L13.6343 11.565L13.9771 11.8898ZM12.288 11.205L12.2883 11.2048C13.4191 10.1327 13.9941 8.81307 13.9941 7.27421C13.9941 5.73536 13.4191 4.41576 12.2883 3.34365L12.288 3.34338C11.1574 2.27309 9.77756 1.73822 8.17834 1.73822C6.57911 1.73822 5.19929 2.27309 4.06867 3.34338L4.0684 3.34365C2.93759 4.41576 2.36257 5.73536 2.36257 7.27421C2.36257 8.81307 2.93759 10.1327 4.0684 11.2048L4.06867 11.205C5.19929 12.2753 6.57911 12.8102 8.17834 12.8102C9.77756 12.8102 11.1574 12.2753 12.288 11.205Z" fill="#0069FF"/>
<path d="M13.9771 11.8898L18.773 16.4332L17.8462 17.3113L13.0111 12.7306L12.7032 12.4389L12.3652 12.6951C11.8211 13.1075 11.1904 13.4379 10.4685 13.6834C9.75595 13.9257 8.9936 14.0484 8.17834 14.0484C6.15345 14.0484 4.46247 13.389 3.07413 12.0737C1.68613 10.7587 1 9.16882 1 7.27421C1 5.37961 1.68613 3.78969 3.07413 2.47474C4.46247 1.15947 6.15345 0.5 8.17834 0.5C10.2032 0.5 11.8947 1.15947 13.2838 2.47483C14.6709 3.78972 15.3567 5.37961 15.3567 7.27421C15.3567 8.03773 15.2287 8.75145 14.9757 9.4192C14.7189 10.097 14.3727 10.6906 13.939 11.2042L13.6343 11.565L13.9771 11.8898ZM12.288 11.205L12.2883 11.2048C13.4191 10.1327 13.9941 8.81307 13.9941 7.27421C13.9941 5.73536 13.4191 4.41576 12.2883 3.34365L12.288 3.34338C11.1574 2.27309 9.77756 1.73822 8.17834 1.73822C6.57911 1.73822 5.19929 2.27309 4.06867 3.34338L4.0684 3.34365C2.93759 4.41576 2.36257 5.73536 2.36257 7.27421C2.36257 8.81307 2.93759 10.1327 4.0684 11.2048L4.06867 11.205C5.19929 12.2753 6.57911 12.8102 8.17834 12.8102C9.77756 12.8102 11.1574 12.2753 12.288 11.205Z" stroke="#333333"/>
<path d="M13.9771 11.8898L18.773 16.4332L17.8462 17.3113L13.0111 12.7306L12.7032 12.4389L12.3652 12.6951C11.8211 13.1075 11.1904 13.4379 10.4685 13.6834C9.75595 13.9257 8.9936 14.0484 8.17834 14.0484C6.15345 14.0484 4.46247 13.389 3.07413 12.0737C1.68613 10.7587 1 9.16882 1 7.27421C1 5.37961 1.68613 3.78969 3.07413 2.47474C4.46247 1.15947 6.15345 0.5 8.17834 0.5C10.2032 0.5 11.8947 1.15947 13.2838 2.47483C14.6709 3.78972 15.3567 5.37961 15.3567 7.27421C15.3567 8.03773 15.2287 8.75145 14.9757 9.4192C14.7189 10.097 14.3727 10.6906 13.939 11.2042L13.6343 11.565L13.9771 11.8898ZM12.288 11.205L12.2883 11.2048C13.4191 10.1327 13.9941 8.81307 13.9941 7.27421C13.9941 5.73536 13.4191 4.41576 12.2883 3.34365L12.288 3.34338C11.1574 2.27309 9.77756 1.73822 8.17834 1.73822C6.57911 1.73822 5.19929 2.27309 4.06867 3.34338L4.0684 3.34365C2.93759 4.41576 2.36257 5.73536 2.36257 7.27421C2.36257 8.81307 2.93759 10.1327 4.0684 11.2048L4.06867 11.205C5.19929 12.2753 6.57911 12.8102 8.17834 12.8102C9.77756 12.8102 11.1574 12.2753 12.288 11.205Z" stroke="black" stroke-opacity="0.2"/>
<path d="M13.9771 11.8898L18.773 16.4332L17.8462 17.3113L13.0111 12.7306L12.7032 12.4389L12.3652 12.6951C11.8211 13.1075 11.1904 13.4379 10.4685 13.6834C9.75595 13.9257 8.9936 14.0484 8.17834 14.0484C6.15345 14.0484 4.46247 13.389 3.07413 12.0737C1.68613 10.7587 1 9.16882 1 7.27421C1 5.37961 1.68613 3.78969 3.07413 2.47474C4.46247 1.15947 6.15345 0.5 8.17834 0.5C10.2032 0.5 11.8947 1.15947 13.2838 2.47483C14.6709 3.78972 15.3567 5.37961 15.3567 7.27421C15.3567 8.03773 15.2287 8.75145 14.9757 9.4192C14.7189 10.097 14.3727 10.6906 13.939 11.2042L13.6343 11.565L13.9771 11.8898ZM12.288 11.205L12.2883 11.2048C13.4191 10.1327 13.9941 8.81307 13.9941 7.27421C13.9941 5.73536 13.4191 4.41576 12.2883 3.34365L12.288 3.34338C11.1574 2.27309 9.77756 1.73822 8.17834 1.73822C6.57911 1.73822 5.19929 2.27309 4.06867 3.34338L4.0684 3.34365C2.93759 4.41576 2.36257 5.73536 2.36257 7.27421C2.36257 8.81307 2.93759 10.1327 4.0684 11.2048L4.06867 11.205C5.19929 12.2753 6.57911 12.8102 8.17834 12.8102C9.77756 12.8102 11.1574 12.2753 12.288 11.205Z" stroke="black" stroke-opacity="0.2"/>
</svg>
